<?xml version="1.0" encoding="utf-8"?>
<svg version="1.1" xmlns="http://www.w3.org/2000/svg" viewBox="0 0 870 231"
     enable-background="new 0 0 870 231" xml:space="preserve">
  <g>
    <path fill="#1B4965" d="M16.58,108.36c-2.88,0-5.62-0.78-8.22-2.34c-2.6-1.56-4.68-3.64-6.24-6.24c-1.56-2.6-2.34-5.34-2.34-8.22
      V39.24c0-2.88,0.78-5.62,2.34-8.22c1.56-2.6,3.64-4.68,6.24-6.24c2.6-1.56,5.34-2.34,8.22-2.34h36.96c3.04,0,5.88,0.76,8.52,2.28
      c2.64,1.52,4.72,3.58,6.24,6.18c1.52,2.6,2.28,5.38,2.28,8.34V87.6H38.9c-2.4,0-4.68-0.64-6.84-1.92c-2.16-1.28-3.88-2.98-5.16-5.1
      c-1.28-2.12-1.92-4.38-1.92-6.78v-12c0-2.4,0.64-4.66,1.92-6.78c1.28-2.12,2.98-3.82,5.1-5.1c2.12-1.28,4.38-1.92,6.78-1.92h16.08
      v-6.48c0-0.8-0.24-1.42-0.72-1.86C53.66,39.22,52.98,39,52.1,39h-33c-0.48,0-0.98,0.28-1.5,0.84c-0.52,0.56-0.78,1.12-0.78,1.68
      v47.4c0,0.56,0.3,1.14,0.9,1.74c0.6,0.6,1.14,0.9,1.62,0.9h51.24v16.8H16.58z M55.46,71.64v-7.68H42.38c-0.4,0-0.76,0.14-1.08,0.42
      c-0.32,0.28-0.48,0.58-0.48,0.9v4.8c0,0.4,0.18,0.76,0.54,1.08c0.36,0.32,0.74,0.48,1.14,0.48H55.46z"/>
    <path fill="#1B4965" d="M127.58,86.04L149.9,23.4h19.2v84h-16.56V64.92h-0.96l-15,42.48H117.5l-15-42.48h-0.96v42.48H84.98v-84
      h19.2l22.32,62.64H127.58z"/>
    <path fill="#1B4965" d="M201.14,107.4c-5.04,0-9.24-1.64-12.6-4.92c-3.36-3.28-5.04-7.44-5.04-12.48V74.52
      c0-5.04,1.68-9.22,5.04-12.54c3.36-3.32,7.56-4.98,12.6-4.98h16.92V42c0-1.6-0.76-2.4-2.28-2.4h-12.96c-0.64,0-1.18,0.2-1.62,0.6
      c-0.44,0.4-0.66,1-0.66,1.8v4.56H183.5V40.2c0-5.04,1.68-9.2,5.04-12.48c3.36-3.28,7.56-4.92,12.6-4.92h16.08
      c5.04,0,9.24,1.64,12.6,4.92c3.36,3.28,5.04,7.44,5.04,12.48v67.2H201.14z M218.06,90.6V73.8h-15.6c-0.64,0-1.16,0.2-1.56,0.6
      c-0.4,0.4-0.6,0.96-0.6,1.68v12.36c0,0.64,0.2,1.16,0.6,1.56c0.4,0.4,0.92,0.6,1.56,0.6H218.06z"/>
    <path fill="#1B4965" d="M307.22,107.4h-19.2L268.7,71.04h-1.08v36.36h-17.76v-84h34.2c5.04,0,9.26,1.64,12.66,4.92
      c3.4,3.28,5.1,7.44,5.1,12.48v14.88c0,4.32-1.28,8-3.84,11.04c-2.56,3.04-5.84,5-9.84,5.88L307.22,107.4z M282.85,57
      c0.64,0,1.18-0.2,1.62-0.6c0.44-0.4,0.66-0.96,0.66-1.68V42.48c0-0.72-0.22-1.28-0.66-1.68c-0.44-0.4-0.98-0.6-1.62-0.6h-16.08V57
      H282.85z"/>
    <path fill="#1B4965" d="M363.61,23.4v16.8h-16.92v67.2h-17.76V40.2h-16.92V23.4H363.61z"/>
    <path fill="#1B4965" d="M375.01,107.4v-84h33.72c5.04,0,9.24,1.64,12.6,4.92c3.36,3.28,5.04,7.44,5.04,12.48V90
      c0,5.04-1.68,9.2-5.04,12.48c-3.36,3.28-7.56,4.92-12.6,4.92H375.01z M407.05,90.6c1.52,0,2.28-0.76,2.28-2.28V42.48
      c0-1.52-0.76-2.28-2.28-2.28h-15v50.4H407.05z"/>
    <path fill="#1B4965"
          d="M492.37,23.4v16.8h-34.8V57h32.76v16.8h-32.76v16.8h34.8v16.8h-51.6v-84H492.37z"/>
    <path fill="#1B4965"
          d="M544.81,107.4h-24l-18.24-84h18.36l11.64,55.92h1.2l11.64-55.92h17.64L544.81,107.4z"/>
    <path fill="#1B4965" d="M579.61,130.92h-17.76L595.93-0.12h17.76L579.61,130.92z"/>
  </g>
  <g>
	<path fill="#62B6CB" d="M155.27,158.96l4.08,12.36l-13.08,4.2l9.48,12.96l-10.68,7.8l-9.6-13.08l-9.6,13.08l-10.68-7.68l9.48-13.08
		l-13.08-4.2l4.08-12.36l13.2,4.08V148.4h13.2v14.64L155.27,158.96z"/>
    <path fill="#62B6CB" d="M228.11,232.4h-19.2l-19.32-36.36h-1.08v36.36h-17.76v-84h34.2c5.04,0,9.26,1.64,12.66,4.92
		c3.4,3.28,5.1,7.44,5.1,12.48v14.88c0,4.32-1.28,8-3.84,11.04c-2.56,3.04-5.84,5-9.84,5.88L228.11,232.4z M203.75,182
		c0.64,0,1.18-0.2,1.62-0.6c0.44-0.4,0.66-0.96,0.66-1.68v-12.24c0-0.72-0.22-1.28-0.66-1.68c-0.44-0.4-0.98-0.6-1.62-0.6h-16.08
		V182H203.75z"/>
    <path fill="#62B6CB"
          d="M288.71,148.4v16.8h-34.8V182h32.76v16.8h-32.76v16.8h34.8v16.8h-51.6v-84H288.71z"/>
    <path fill="#62B6CB" d="M320.75,232.4c-5.04,0-9.24-1.64-12.6-4.92c-3.36-3.28-5.04-7.44-5.04-12.48v-15.48
		c0-5.04,1.68-9.22,5.04-12.54c3.36-3.32,7.56-4.98,12.6-4.98h16.92v-15c0-1.6-0.76-2.4-2.28-2.4h-12.96c-0.64,0-1.18,0.2-1.62,0.6
		c-0.44,0.4-0.66,1-0.66,1.8v4.56h-17.04v-6.36c0-5.04,1.68-9.2,5.04-12.48c3.36-3.28,7.56-4.92,12.6-4.92h16.08
		c5.04,0,9.24,1.64,12.6,4.92c3.36,3.28,5.04,7.44,5.04,12.48v67.2H320.75z M337.67,215.6v-16.8h-15.6c-0.64,0-1.16,0.2-1.56,0.6
		c-0.4,0.4-0.6,0.96-0.6,1.68v12.36c0,0.64,0.2,1.16,0.6,1.56c0.4,0.4,0.92,0.6,1.56,0.6H337.67z"/>
    <path fill="#62B6CB" d="M386.03,233c-5.12,0-9.36-1.64-12.72-4.92c-3.36-3.28-5.04-7.44-5.04-12.48v-50.4
		c0-5.04,1.68-9.2,5.04-12.48c3.36-3.28,7.6-4.92,12.72-4.92h16.44c5.12,0,9.34,1.64,12.66,4.92c3.32,3.28,4.98,7.44,4.98,12.48
		v6.36h-17.16v-4.68c0-0.72-0.22-1.28-0.66-1.68c-0.44-0.4-1.02-0.6-1.74-0.6h-12.72c-1.52,0-2.28,0.76-2.28,2.28v47.04
		c0,1.52,0.76,2.28,2.28,2.28h12.72c0.72,0,1.3-0.2,1.74-0.6c0.44-0.4,0.66-0.96,0.66-1.68v-4.68h17.16v6.36
		c0,5.04-1.66,9.2-4.98,12.48c-3.32,3.28-7.54,4.92-12.66,4.92H386.03z"/>
    <path fill="#62B6CB" d="M480.71,148.4v16.8h-16.92v67.2h-17.76v-67.2h-16.92v-16.8H480.71z"/>
    <path fill="#62B6CB" d="M516.11,198.8h-40.2V182h40.2V198.8z"/>
    <path fill="#62B6CB" d="M583.67,232.4h-19.2l-19.32-36.36h-1.08v36.36h-17.76v-84h34.2c5.04,0,9.26,1.64,12.66,4.92
		c3.4,3.28,5.1,7.44,5.1,12.48v14.88c0,4.32-1.28,8-3.84,11.04c-2.56,3.04-5.84,5-9.84,5.88L583.67,232.4z M559.31,182
		c0.64,0,1.18-0.2,1.62-0.6c0.44-0.4,0.66-0.96,0.66-1.68v-12.24c0-0.72-0.22-1.28-0.66-1.68c-0.44-0.4-0.98-0.6-1.62-0.6h-16.08
		V182H559.31z"/>
    <path fill="#62B6CB"
          d="M644.27,148.4v16.8h-34.8V182h32.76v16.8h-32.76v16.8h34.8v16.8h-51.6v-84H644.27z"/>
    <path fill="#62B6CB" d="M675.23,233c-3.28,0-6.28-0.76-9-2.28c-2.72-1.52-4.86-3.6-6.42-6.24c-1.56-2.64-2.34-5.6-2.34-8.88v-6.36
		h17.16v4.56c0,0.72,0.22,1.3,0.66,1.74c0.44,0.44,0.98,0.66,1.62,0.66h12.6c2,0,3-1,3-3v-2.88c0-1.52-0.6-2.72-1.8-3.6
		l-21.48-16.44c-4-3.04-6.9-5.86-8.7-8.46c-1.8-2.6-2.7-5.42-2.7-8.46v-8.16c0-5.04,1.66-9.2,4.98-12.48
		c3.32-3.28,7.58-4.92,12.78-4.92h15.96c5.04,0,9.26,1.64,12.66,4.92c3.4,3.28,5.1,7.44,5.1,12.48v6.24h-17.16V167
		c0-0.72-0.22-1.3-0.66-1.74c-0.44-0.44-0.98-0.66-1.62-0.66h-12.24c-2,0-3,1-3,3v2.64c0,1.52,0.6,2.72,1.8,3.6l21.24,16.2
		c4,3.04,6.94,5.82,8.82,8.34c1.88,2.52,2.82,5.22,2.82,8.1v9.12c0,5.04-1.66,9.2-4.98,12.48c-3.32,3.28-7.58,4.92-12.78,4.92
		H675.23z"/>
    <path fill="#62B6CB" d="M740.27,232.4h-17.76v-84h17.76V232.4z"/>
    <path fill="#62B6CB"
          d="M804.47,232.4h-50.4v-25.2l33.6-40.92v-1.08h-33.6v-16.8h50.4v25.2l-33.48,40.68v1.32h33.48V232.4z"/>
    <path fill="#62B6CB"
          d="M869.87,148.4v16.8h-34.8V182h32.76v16.8h-32.76v16.8h34.8v16.8h-51.6v-84H869.87z"/>
  </g>
</svg>
